<svg xmlns="http://www.w3.org/2000/svg" xmlns:xlink="http://www.w3.org/1999/xlink" version="1.1" id="Layer_1" x="0px" y="0px" viewBox="0 0 89.4 67.2" style="enable-background:new 0 0 89.4 67.2;" xml:space="preserve">
<style type="text/css">
	.st0{fill:#FFFFFF;}
</style>
<path class="st0" d="M86.7,13.2c-2.4-7.7-5.7-9.3-14.7-11C65.9,1,55,0,44.7,0S23.6,1,17.4,2.2C8.5,3.9,5.2,5.5,2.8,13.2  C0.8,19.3,0,25.9,0,33.6s0.8,14.3,2.8,20.5c2.4,7.7,5.7,9.3,14.7,11c6.1,1.2,17,2.2,27.3,2.2s21.1-1,27.3-2.2  c8.9-1.7,12.2-3.3,14.7-11c2-6.2,2.8-12.8,2.8-20.5C89.4,25.9,88.6,19.3,86.7,13.2z M62,35.5l-26,16.7c-1.6,1-2.9,0.3-2.9-1.6v-34  c0-1.9,1.3-2.6,2.9-1.6l26,16.7C63.6,32.8,63.6,34.5,62,35.5z"/>
</svg>