<svg xmlns="http://www.w3.org/2000/svg" width="40.435" height="30" viewBox="0 0 40.435 30">
  <path id="Path_13334" data-name="Path 13334" d="M17.739,27a6.5,6.5,0,1,0,6.522,6.5A6.513,6.513,0,0,0,17.739,27ZM34.7,30.9a6.5,6.5,0,1,0,6.522,6.5A6.513,6.513,0,0,0,34.7,30.9ZM17.657,41.35A11.706,11.706,0,0,0,6,53.118l16.223-.061a13.085,13.085,0,0,1,5.034-6.809,11.72,11.72,0,0,0-9.6-4.9Zm16.957,3.862A11.723,11.723,0,0,0,22.956,57l23.478-.1v-.061A11.723,11.723,0,0,0,34.614,45.211Z" transform="translate(-6 -27)" fill="#484848"/>
</svg>
