<svg xmlns="http://www.w3.org/2000/svg" width="41.624" height="30" viewBox="0 0 41.624 30">
  <g id="Group_10519" data-name="Group 10519" transform="translate(0 -4.468)">
    <rect id="Rectangle_15009" data-name="Rectangle 15009" width="35.203" height="22.889" transform="translate(3.21 4.468)" fill="#484848"/>
    <path id="Path_13337" data-name="Path 13337" d="M0,24.4a4.814,4.814,0,0,0,4.718,4.9H36.906a4.814,4.814,0,0,0,4.718-4.9V22.554H0Zm16.51.722h8.6a.8.8,0,0,1,.77.8.789.789,0,0,1-.77.8h-8.6a.789.789,0,0,1-.77-.8A.8.8,0,0,1,16.51,25.122Z" transform="translate(0 5.172)" fill="#484848"/>
  </g>
</svg>
