<svg xmlns="http://www.w3.org/2000/svg" width="30" height="30" viewBox="0 0 30 30">
  <g id="Group_10516" data-name="Group 10516" transform="translate(-3.969 -3.969)">
    <path id="Path_13330" data-name="Path 13330" d="M16.318,3.969a.882.882,0,0,0-.88.884h0a.88.88,0,0,0,.88.88h1.764V8.384l0,.033a10.594,10.594,0,0,0-5.956,2.468l-.027-.027L10.232,8.988l1.247-1.247a.885.885,0,0,0,0-1.251h0a.88.88,0,0,0-1.244,0L8.358,8.364l-.01.01L6.487,10.235a.884.884,0,0,0,0,1.247l0,0a.881.881,0,0,0,1.247,0l0,0,1.247-1.247,1.867,1.871.03.027a10.586,10.586,0,0,0-2.464,5.956H5.733V16.328a.885.885,0,0,0-.88-.887H4.846a.882.882,0,0,0-.877.887h0v5.3a.882.882,0,0,0,1.764,0h0V19.856H8.418a10.589,10.589,0,0,0,2.464,5.953l-.03.027L8.985,27.7,7.741,26.462a.883.883,0,0,0-1.254,1.244l1.821,1.817.05.057.06.053,1.817,1.817A.883.883,0,0,0,11.482,30.2l0,0-1.247-1.244L12.1,27.079l.023-.027a10.6,10.6,0,0,0,5.959,2.468l0,.04V32.2H16.318a.882.882,0,0,0-.88.884h0a.88.88,0,0,0,.88.88h5.3a.887.887,0,0,0,.887-.88h0a.882.882,0,0,0-.88-.884H19.846V29.52a10.609,10.609,0,0,0,5.959-2.464l.02.02L27.7,28.95,26.452,30.2a.881.881,0,0,0,0,1.247l0,0a.884.884,0,0,0,1.247,0l0,0L31.448,27.7A.882.882,0,1,0,30.2,26.459L28.95,27.706l-1.871-1.874-.03-.027a10.594,10.594,0,0,0,2.468-5.956l.037,0H32.2V21.62a.884.884,0,0,0,1.767,0h0v-5.3a.887.887,0,0,0-.88-.887h-.007a.885.885,0,0,0-.88.887h0v1.764H29.517a10.6,10.6,0,0,0-2.464-5.956l.027-.027,1.867-1.874L30.2,11.482a.881.881,0,0,0,1.247,0l0,0a.881.881,0,0,0,0-1.247l0,0L27.7,6.487a.884.884,0,0,0-1.254,1.247l0,0L27.7,8.988l-1.878,1.871-.023.027a10.594,10.594,0,0,0-5.956-2.468V5.733h1.767a.887.887,0,0,0,.887-.88h0a.882.882,0,0,0-.88-.884h-5.3Z" transform="translate(0 0)" fill="#484848"/>
  </g>
</svg>
