<svg id="Group_11048" data-name="Group 11048" xmlns="http://www.w3.org/2000/svg" xmlns:xlink="http://www.w3.org/1999/xlink" width="275.972" height="49.742" viewBox="0 0 275.972 49.742">
  <defs>
    <clipPath id="clip-path">
      <rect id="Rectangle_15145" data-name="Rectangle 15145" width="275.972" height="49.742" fill="none"/>
    </clipPath>
  </defs>
  <g id="Group_11047" data-name="Group 11047" clip-path="url(#clip-path)">
    <path id="Path_13262" data-name="Path 13262" d="M146.593.544l7.03,19.091H148.54l-.946-3.057h-7.031l-.946,3.057h-5.083L141.617.544Zm-2.569,4.543c-.243.973-.514,1.974-.784,2.947-.406,1.433-1.136,3.678-1.568,5.111h4.841Z" transform="translate(-20.844 -0.084)" fill="#fff"/>
    <path id="Path_13263" data-name="Path 13263" d="M162.435,7.862a6.544,6.544,0,0,1,4.083-1.622V9.918l-1.379.216c-2,.352-2.6.648-2.6,2.433v7.95H158.38V6.374h4.055Z" transform="translate(-24.539 -0.967)" fill="#fff"/>
    <path id="Path_13264" data-name="Path 13264" d="M169.707.512h4.11V3.731h-4.11Zm0,4.975h4.11V19.629h-4.11Z" transform="translate(-26.294 -0.079)" fill="#fff"/>
    <path id="Path_13265" data-name="Path 13265" d="M177.43,6.432h12.087v3.19L182,17.3h7.517v3.245h-12.9V17.41l7.626-7.788H177.43Z" transform="translate(-27.365 -0.997)" fill="#fff"/>
    <path id="Path_13266" data-name="Path 13266" d="M207.949,13.379c0,3.569-2.055,7.49-7.572,7.49-3.974,0-7.6-2.271-7.6-7.49,0-4.326,2.731-7.761,8.139-7.463,5.76.325,7.031,4.894,7.031,7.463m-10.275-2.785a5.121,5.121,0,0,0-.7,2.758c0,2.244,1.082,4.219,3.406,4.219,2.244,0,3.353-1.812,3.353-4.029A4.782,4.782,0,0,0,202.567,10a3.022,3.022,0,0,0-2.434-.784,2.808,2.808,0,0,0-2.46,1.379" transform="translate(-29.868 -0.914)" fill="#fff"/>
    <path id="Path_13267" data-name="Path 13267" d="M216.587,7.638a4.073,4.073,0,0,1,1.405-1.108,6.862,6.862,0,0,1,2.569-.515,5.371,5.371,0,0,1,2.515.568c1.487.784,1.866,2.055,1.866,4.246v9.654H220.8v-7.95a5.66,5.66,0,0,0-.189-2.109,1.894,1.894,0,0,0-1.866-1.082c-2.19,0-2.19,1.758-2.19,3.515v7.626H212.4V6.394h4.192Z" transform="translate(-32.908 -0.932)" fill="#fff"/>
    <path id="Path_13268" data-name="Path 13268" d="M229.566,10.364a3.929,3.929,0,0,1,1.486-3.136,7.256,7.256,0,0,1,4.624-1.245c1.731,0,5.921.406,5.921,4.056V18.26c0,1.514.082,1.73.406,2.217h-4.083v-1.3a6.648,6.648,0,0,1-4.327,1.676,4.283,4.283,0,0,1-4.624-4.3,4.562,4.562,0,0,1,2.975-4.056,36.272,36.272,0,0,1,5.57-1.3v-.756c-.054-.65-.108-1.731-1.6-1.731-1.839,0-2.082,1.135-2.19,1.649Zm5.272,4.246c-.7.27-1.784.676-1.784,1.757a1.51,1.51,0,0,0,1.568,1.434,2.728,2.728,0,0,0,1.433-.46c1.379-.866,1.433-2.163,1.46-3.624Z" transform="translate(-35.476 -0.927)" fill="#fff"/>
    <path id="Path_13269" data-name="Path 13269" d="M254.162,13.817A6,6,0,0,0,256,15.3a7.855,7.855,0,0,0,3.678.919c1.893,0,3.515-.893,3.515-2.217,0-1.514-1.92-1.758-3.326-1.947-1.055-.135-2.108-.27-3.136-.487-1.162-.243-5.138-1.082-5.138-5.191,0-4.922,4.381-6.382,7.679-6.382a11.64,11.64,0,0,1,8.437,3.624l-3.515,2.515A8.753,8.753,0,0,0,262.3,4.6a6.867,6.867,0,0,0-3.109-.837c-1.893,0-2.839,1.081-2.839,2,0,1.461,1.623,1.677,2.434,1.786a37.234,37.234,0,0,1,5.84,1.135,4.732,4.732,0,0,1,3.3,4.678,6.358,6.358,0,0,1-1.514,4.055c-1.731,2-4.49,2.569-7.166,2.569-5.381,0-7.518-2.487-8.708-3.866Z" transform="translate(-38.817 0)" fill="#fff"/>
    <path id="Path_13270" data-name="Path 13270" d="M273.169,1.6h4.137V6.007h2.73V8.549h-2.758V14.9c-.027.865-.027,1.595,1.083,1.595l1.486-.053V19.69a13.3,13.3,0,0,1-2.19.216c-1.434,0-3-.081-3.894-1.379a5.463,5.463,0,0,1-.595-3.192V8.522h-2.054V5.981h2.054Z" transform="translate(-42.005 -0.248)" fill="#fff"/>
    <path id="Path_13271" data-name="Path 13271" d="M283.069,10.364a3.93,3.93,0,0,1,1.487-3.136,7.254,7.254,0,0,1,4.623-1.245c1.731,0,5.921.406,5.921,4.056V18.26c0,1.514.082,1.73.406,2.217h-4.083v-1.3a6.646,6.646,0,0,1-4.326,1.676,4.283,4.283,0,0,1-4.624-4.3,4.56,4.56,0,0,1,2.974-4.056,36.308,36.308,0,0,1,5.571-1.3v-.756c-.054-.65-.108-1.731-1.595-1.731-1.839,0-2.082,1.135-2.19,1.649Zm5.272,4.246c-.7.27-1.784.676-1.784,1.757a1.51,1.51,0,0,0,1.568,1.434,2.731,2.731,0,0,0,1.434-.46c1.379-.866,1.432-2.163,1.459-3.624Z" transform="translate(-43.765 -0.927)" fill="#fff"/>
    <path id="Path_13272" data-name="Path 13272" d="M300.464,1.6H304.6V6.007h2.73V8.549h-2.758V14.9c-.027.865-.027,1.595,1.082,1.595l1.486-.053V19.69a13.288,13.288,0,0,1-2.19.216c-1.433,0-3-.081-3.894-1.379a5.462,5.462,0,0,1-.595-3.192V8.522h-2.055V5.981h2.055Z" transform="translate(-46.234 -0.248)" fill="#fff"/>
    <path id="Path_13273" data-name="Path 13273" d="M323.778,16.866a11.031,11.031,0,0,1-1.7,2.109,7.757,7.757,0,0,1-5.327,2c-4.192,0-7.138-2.676-7.138-7.3,0-3.407,1.676-7.787,7.246-7.787a6.848,6.848,0,0,1,5.083,2.028c1.839,1.973,1.947,4.732,2,6.327H313.855a3.179,3.179,0,0,0,3.218,3.515,3.733,3.733,0,0,0,3.569-2.487Zm-4.137-5.219a3.358,3.358,0,0,0-.784-2,2.93,2.93,0,0,0-2.028-.785,2.863,2.863,0,0,0-2.109.919,3.689,3.689,0,0,0-.838,1.866Z" transform="translate(-47.97 -0.912)" fill="#fff"/>
    <path id="Path_13274" data-name="Path 13274" d="M151.573,30.544V41.2a10.07,10.07,0,0,1-1.108,5.408c-2.055,3.3-6.3,3.461-7.112,3.461a10.158,10.158,0,0,1-4.434-1.027c-3.678-1.894-3.678-5.246-3.651-7.842V30.544h4.813v11.9a5.139,5.139,0,0,0,.351,2.379,3.445,3.445,0,0,0,3.083,1.3c3.245,0,3.245-2.217,3.272-3.7V30.544Z" transform="translate(-20.957 -4.732)" fill="#fff"/>
    <path id="Path_13275" data-name="Path 13275" d="M161.316,37.638a4.068,4.068,0,0,1,1.406-1.108,6.863,6.863,0,0,1,2.569-.515,5.365,5.365,0,0,1,2.514.568c1.487.784,1.866,2.055,1.866,4.246v9.654h-4.137v-7.95a5.668,5.668,0,0,0-.188-2.109,1.894,1.894,0,0,0-1.866-1.082c-2.19,0-2.19,1.758-2.19,3.515v7.626h-4.164V36.394h4.192Z" transform="translate(-24.344 -5.58)" fill="#fff"/>
    <path id="Path_13276" data-name="Path 13276" d="M174.532,30.512h4.11v3.219h-4.11Zm0,4.975h4.11V49.629h-4.11Z" transform="translate(-27.041 -4.727)" fill="#fff"/>
    <path id="Path_13277" data-name="Path 13277" d="M180.836,36.432h4.38A87.519,87.519,0,0,1,187.7,46.707c.568-3.137.649-3.488,1.487-6.815l.865-3.461h4.273l-4.57,14.115h-4.354Z" transform="translate(-28.018 -5.645)" fill="#fff"/>
    <path id="Path_13278" data-name="Path 13278" d="M210.909,46.866a11.005,11.005,0,0,1-1.7,2.109,7.754,7.754,0,0,1-5.327,2c-4.191,0-7.138-2.676-7.138-7.3,0-3.407,1.677-7.787,7.246-7.787a6.851,6.851,0,0,1,5.084,2.028c1.839,1.973,1.947,4.732,2,6.327H200.985a3.18,3.18,0,0,0,3.219,3.515,3.734,3.734,0,0,0,3.569-2.487Zm-4.137-5.219a3.353,3.353,0,0,0-.784-2,2.93,2.93,0,0,0-2.028-.785,2.863,2.863,0,0,0-2.109.919,3.694,3.694,0,0,0-.837,1.866Z" transform="translate(-30.482 -5.56)" fill="#fff"/>
    <path id="Path_13279" data-name="Path 13279" d="M219.739,37.862a6.544,6.544,0,0,1,4.083-1.622v3.678l-1.379.216c-2,.352-2.6.648-2.6,2.433v7.95h-4.164V36.374h4.056Z" transform="translate(-33.417 -5.615)" fill="#fff"/>
    <path id="Path_13280" data-name="Path 13280" d="M227.81,45.7a6.035,6.035,0,0,0,4.11,1.947c1,0,2.515-.325,2.515-1.379a.861.861,0,0,0-.541-.811,8.992,8.992,0,0,0-2.407-.541,15.856,15.856,0,0,1-1.892-.433,5.31,5.31,0,0,1-2.354-1.217,3.81,3.81,0,0,1-1.054-2.65c0-2.326,2-4.732,5.948-4.732a10.336,10.336,0,0,1,6.3,2.109l-2.568,2.379a5.914,5.914,0,0,0-3.543-1.406c-1.623,0-2,.65-2,1.055,0,.811.892.974,2.245,1.218,2.839.513,6.139,1.27,6.139,4.623,0,3.326-3.353,4.949-6.679,4.949a9.3,9.3,0,0,1-6.841-2.732Z" transform="translate(-34.89 -5.56)" fill="#fff"/>
    <path id="Path_13281" data-name="Path 13281" d="M242.723,30.512h4.11v3.219h-4.11Zm0,4.975h4.11V49.629h-4.11Z" transform="translate(-37.606 -4.727)" fill="#fff"/>
    <path id="Path_13282" data-name="Path 13282" d="M251.37,31.6h4.137v4.408h2.73v2.542h-2.757V44.9c-.028.865-.028,1.595,1.082,1.595l1.487-.053V49.69a13.315,13.315,0,0,1-2.19.216c-1.433,0-3-.081-3.894-1.379a5.463,5.463,0,0,1-.595-3.192V38.522h-2.055V35.981h2.055Z" transform="translate(-38.628 -4.896)" fill="#fff"/>
    <path id="Path_13283" data-name="Path 13283" d="M274.548,36.432l-4.976,15.25a7.063,7.063,0,0,1-1.325,2.569,3.611,3.611,0,0,1-3,1.136h-3v-3.3h1.461c.675-.026,1.73-.026,1.73-1.028a3.865,3.865,0,0,0-.189-1l-4.218-13.628h4.434l2.326,10.112,2.326-10.112Z" transform="translate(-40.443 -5.645)" fill="#fff"/>
    <path id="Path_13284" data-name="Path 13284" d="M123.781,3.965a1.642,1.642,0,1,1,0-3.284,1.624,1.624,0,0,1,1.637,1.646,1.624,1.624,0,0,1-1.641,1.638m-.005-3.5a1.841,1.841,0,0,0-1.853,1.858,1.858,1.858,0,0,0,3.716.01A1.839,1.839,0,0,0,123.776.465m-.683.807h.657a.921.921,0,0,1,.64.149.629.629,0,0,1,.227.509.563.563,0,0,1-.406.566l.458.839h-.441l-.409-.766h-.344v.766h-.383Zm.383.333v.646h.134c.132,0,.182,0,.254-.006a.322.322,0,0,0,.363-.319.294.294,0,0,0-.164-.277.951.951,0,0,0-.409-.044Z" transform="translate(-18.89 -0.072)" fill="#fff"/>
    <path id="Path_13285" data-name="Path 13285" d="M104.461,44.607s-.731-.811-1.941-2.119a4.953,4.953,0,0,1-1.417-3.317V.536H86.481v30.9c-.179,2.926-3.038,3.668-4.617,3.617-2.267-.068-3.586-1.348-3.586-3.528V.536H64.037S58.092.545,54,.545c-7.795,0-15.15,1.2-17.639,7.686L34.9,2.486a3,3,0,0,0-2.81-1.95H6.635c-.371,0-.509.12-.319.38,0,0,.69.659,1.948,2.1A5.532,5.532,0,0,1,9.325,7.661L0,44.975H13.571l1.95-8.192h13.1l2.039,8.192H48.527c7.335,0,13.3-.748,16.24-5.325,2.2,4.177,6.933,6.136,15.287,5.416,2.91-.248,5.757-1.607,6.978-3.777l.577,1.8a3.063,3.063,0,0,0,2.9,1.89h13.649c.371,0,.491-.111.3-.37M33.552,8.493,36,9.981c-.08.4-.177.938-.236,1.317L33.218,8.936a.279.279,0,0,1,.335-.443m-2.506,3.122,4.6,1.847a18.373,18.373,0,0,0,.083,1.846L30.8,12.1a.273.273,0,0,1,.251-.482m-1.862,3.467,6.765,1.525a10.388,10.388,0,0,0,.833,2.373L29.02,15.589a.268.268,0,0,1,.166-.507M17.56,28.686l4.517-18.245,4.535,18.245Zm37.432,6.036c-1.308,1.19-3.7,1.769-6.324,1.519a10.26,10.26,0,0,1-3.038-.908l-5.475,6.789a.29.29,0,0,1-.485-.311l3.751-7.545a.091.091,0,0,0-.141-.109l-6.659,5.8a.285.285,0,0,1-.415-.386l5.162-6.857a.085.085,0,0,0-.112-.124l-7.713,4.69a.277.277,0,0,1-.333-.44l6.441-5.979a.079.079,0,0,0-.083-.131l-8.521,3.423a.273.273,0,0,1-.251-.482l7.5-4.883a.079.079,0,0,0-.061-.144l-9.05,2.04a.267.267,0,0,1-.166-.506l8.375-3.658a.073.073,0,0,0-.034-.14l-9.313.6a.266.266,0,0,1-.083-.524l8.953-2.3a.073.073,0,0,0-.011-.144l-9.291-.865a.264.264,0,0,1,0-.526l9.311-.867a.07.07,0,0,0,.011-.137l-8.973-2.3a.266.266,0,0,1,.083-.524l8.942.574c2.287,4.18,7.112,5.844,11.349,7.315,4.126,1.419,7.675,2.647,7.675,5.827a2.915,2.915,0,0,1-1.022,2.217m12.747,5.239-2.11-1.839s.307-.75.466-1.278l2.056,2.732a.283.283,0,0,1-.412.385m3.069-2.685L66.575,34.7s.17-1.238.2-1.917l4.365,4.049a.277.277,0,0,1-.333.44m2.484-3.133-6.468-2.6a15,15,0,0,0-.153-2.361l6.873,4.476a.274.274,0,0,1-.252.483m3.429-11-9.277.865a.073.073,0,0,0-.011.144l8.94,2.292a.268.268,0,0,1-.084.526l-9.3-.6a.073.073,0,0,0-.034.14l8.376,3.658a.268.268,0,0,1-.166.506L66.6,28.748s-.349-3.837-4.786-6.9a36.158,36.158,0,0,0-7.635-3.615,30.222,30.222,0,0,1-5.008-2.221c-1.45-.919-2.13-1.908-2.13-3.107a2.929,2.929,0,0,1,.87-2.179c1-.979,2.818-1.419,5.277-1.4a16.588,16.588,0,0,1,5.436,1.208l5.576-6.9a.29.29,0,0,1,.485.31l-3.793,7.628a.073.073,0,0,0,.113.088L67.739,5.8a.283.283,0,0,1,.412.385L62.945,13.1a.073.073,0,0,0,.1.106L70.787,8.5a.28.28,0,0,1,.336.445l-6.448,5.984a.073.073,0,0,0,.077.122l8.539-3.43a.274.274,0,0,1,.252.483L66.026,17a.073.073,0,0,0,.056.132l9.083-2.048a.268.268,0,0,1,.166.507l-8.376,3.658a.073.073,0,0,0,.034.14l9.3-.6a.268.268,0,0,1,.084.526l-8.94,2.292a.073.073,0,0,0,.011.144l9.277.865a.265.265,0,0,1,0,.528" transform="translate(0 -0.083)" fill="#fff"/>
  </g>
</svg>
