<svg xmlns="http://www.w3.org/2000/svg" xmlns:xlink="http://www.w3.org/1999/xlink" width="833" height="795.447" viewBox="0 0 833 795.447">
  <defs>
    <clipPath id="clip-path">
      <rect id="Rectangle_15285" data-name="Rectangle 15285" width="833" height="795.447" fill="#8f4a3a"/>
    </clipPath>
  </defs>
  <g id="Group_11383" data-name="Group 11383" opacity="0.152" style="mix-blend-mode: multiply;isolation: isolate">
    <g id="Group_11307" data-name="Group 11307" clip-path="url(#clip-path)">
      <path id="Path_13041" data-name="Path 13041" d="M415.579,619.575Q283.2,707.9,152.005,795.447q-1.143-.858-2.285-1.713c32.219-98.784,64.437-197.566,96.95-297.243Q123.039,398.768,0,301.51l.913-2.224h309.8Q362.7,149.055,414.251.089L416.97,0c34.489,99.167,68.98,198.334,103.868,298.644H831.979q.511,1.321,1.021,2.647c-82.3,65.25-165.139,129.822-247.857,195.266Q633.685,645.323,682,793.406q-1.095.922-2.188,1.849C591.129,737.642,503.6,678.2,415.579,619.575m-1.073-178.961C302.7,402.871,191.674,365.388,80.644,327.907q-.329.7-.662,1.409,101.112,77.5,202.226,154.993l132.3-43.695M755.725,325.9H497.144c-26.312,37.277-52.253,74.03-78.2,110.783q.734.766,1.466,1.532C531.635,400.966,642.857,363.711,755.725,325.9M413.981,443.871,214.868,716.312q.8.76,1.611,1.519,98.731-66.123,197.5-132.277Zm.136-349.8c-.457-.2-.917-.4-1.377-.6q-39.327,115.367-78.652,230.723c26.492,37.479,52.579,74.381,80.029,113.215Zm6.377,348.939q-.613.907-1.228,1.811l201.7,270.157,1.907-1.034q-37.466-113.72-74.824-227.11c-43.333-14.887-85.442-29.357-127.553-43.824" fill="#8f4a3a"/>
    </g>
  </g>
</svg>
