<svg data-name="Group 11397" xmlns="http://www.w3.org/2000/svg" width="487.87" height="63.086">
    <defs>
        <clipPath id="a">
            <path data-name="Rectangle 15402" fill="#8f4a3a" d="M0 0h487.87v63.086H0z"/>
        </clipPath>
    </defs>
    <g data-name="Group 11396" clip-path="url(#a)" fill="#8f4a3a">
        <path data-name="Path 13316" d="m249.203 49.137-20.9 13.948-.181-.136 7.689-23.574-19.563-15.464.072-.176h24.57L249.098.007l.216-.007 8.238 23.685h24.676l.081.21c-6.527 5.175-13.1 10.3-19.657 15.486l7.682 23.543-.173.147c-7.033-4.569-13.975-9.284-20.956-13.933m-.085-14.193-26.478-8.939-.052.112 16.038 12.292 10.492-3.465m27.062-9.1h-20.508l-6.2 8.786.116.122 26.593-8.908M249.079 35.2l-15.791 21.607.128.12 15.663-10.488Zm.011-27.742-.109-.048-6.238 18.3 6.347 8.979Zm.506 27.674-.1.144 16 21.426.151-.082-5.938-18.01-10.116-3.476"/>
        <path data-name="Path 13317" d="m268.915 40.284 12.695-10.277 206.261 8.705-217.263 7.98Z"/>
        <path data-name="Path 13318" d="m230.26 40.616-13.35-10.277L0 39.044l228.48 7.98Z"/>
    </g>
</svg>